<svg width="128" height="24" viewBox="0 0 128 24" fill="none" xmlns="http://www.w3.org/2000/svg">
<path d="M29.56 12.4C29.56 11.3013 29.8053 10.32 30.296 9.456C30.7973 8.58133 31.4747 7.904 32.328 7.424C33.192 6.93333 34.1573 6.688 35.224 6.688C36.472 6.688 37.5653 7.008 38.504 7.648C39.4427 8.288 40.0987 9.17333 40.472 10.304H37.896C37.64 9.77067 37.2773 9.37067 36.808 9.104C36.3493 8.83733 35.816 8.704 35.208 8.704C34.5573 8.704 33.976 8.85867 33.464 9.168C32.9627 9.46667 32.568 9.89333 32.28 10.448C32.0027 11.0027 31.864 11.6533 31.864 12.4C31.864 13.136 32.0027 13.7867 32.28 14.352C32.568 14.9067 32.9627 15.3387 33.464 15.648C33.976 15.9467 34.5573 16.096 35.208 16.096C35.816 16.096 36.3493 15.9627 36.808 15.696C37.2773 15.4187 37.64 15.0133 37.896 14.48H40.472C40.0987 15.6213 39.4427 16.512 38.504 17.152C37.576 17.7813 36.4827 18.096 35.224 18.096C34.1573 18.096 33.192 17.856 32.328 17.376C31.4747 16.8853 30.7973 16.208 30.296 15.344C29.8053 14.48 29.56 13.4987 29.56 12.4ZM41.8092 13.536C41.8092 12.64 41.9852 11.8453 42.3372 11.152C42.6999 10.4587 43.1853 9.92533 43.7933 9.552C44.4119 9.17867 45.0999 8.992 45.8573 8.992C46.5186 8.992 47.0946 9.12533 47.5853 9.392C48.0866 9.65867 48.4866 9.99467 48.7853 10.4V9.136H51.0413V18H48.7853V16.704C48.4973 17.12 48.0973 17.4667 47.5853 17.744C47.0839 18.0107 46.5026 18.144 45.8413 18.144C45.0946 18.144 44.4119 17.952 43.7933 17.568C43.1853 17.184 42.6999 16.6453 42.3372 15.952C41.9852 15.248 41.8092 14.4427 41.8092 13.536ZM48.7853 13.568C48.7853 13.024 48.6786 12.56 48.4653 12.176C48.2519 11.7813 47.9639 11.4827 47.6013 11.28C47.2386 11.0667 46.8493 10.96 46.4333 10.96C46.0173 10.96 45.6333 11.0613 45.2812 11.264C44.9293 11.4667 44.6413 11.7653 44.4173 12.16C44.2039 12.544 44.0973 13.0027 44.0973 13.536C44.0973 14.0693 44.2039 14.5387 44.4173 14.944C44.6413 15.3387 44.9293 15.6427 45.2812 15.856C45.6439 16.0693 46.0279 16.176 46.4333 16.176C46.8493 16.176 47.2386 16.0747 47.6013 15.872C47.9639 15.6587 48.2519 15.36 48.4653 14.976C48.6786 14.5813 48.7853 14.112 48.7853 13.568ZM55.469 10.512C55.757 10.0427 56.1303 9.67467 56.589 9.408C57.0583 9.14133 57.5917 9.008 58.189 9.008V11.36H57.597C56.893 11.36 56.3597 11.5253 55.997 11.856C55.645 12.1867 55.469 12.7627 55.469 13.584V18H53.229V9.136H55.469V10.512ZM63.1698 8.992C63.8311 8.992 64.4124 9.12533 64.9138 9.392C65.4151 9.648 65.8098 9.984 66.0978 10.4V9.136H68.3538V18.064C68.3538 18.8853 68.1884 19.616 67.8578 20.256C67.5271 20.9067 67.0311 21.4187 66.3698 21.792C65.7084 22.176 64.9084 22.368 63.9698 22.368C62.7111 22.368 61.6764 22.0747 60.8658 21.488C60.0658 20.9013 59.6124 20.1013 59.5058 19.088H61.7298C61.8471 19.4933 62.0978 19.8133 62.4818 20.048C62.8764 20.2933 63.3511 20.416 63.9058 20.416C64.5564 20.416 65.0844 20.2187 65.4898 19.824C65.8951 19.44 66.0978 18.8533 66.0978 18.064V16.688C65.8098 17.104 65.4098 17.4507 64.8978 17.728C64.3964 18.0053 63.8204 18.144 63.1698 18.144C62.4231 18.144 61.7404 17.952 61.1218 17.568C60.5031 17.184 60.0124 16.6453 59.6497 15.952C59.2977 15.248 59.1217 14.4427 59.1217 13.536C59.1217 12.64 59.2977 11.8453 59.6497 11.152C60.0124 10.4587 60.4978 9.92533 61.1058 9.552C61.7244 9.17867 62.4124 8.992 63.1698 8.992ZM66.0978 13.568C66.0978 13.024 65.9911 12.56 65.7778 12.176C65.5644 11.7813 65.2764 11.4827 64.9138 11.28C64.5511 11.0667 64.1618 10.96 63.7458 10.96C63.3298 10.96 62.9458 11.0613 62.5938 11.264C62.2418 11.4667 61.9538 11.7653 61.7298 12.16C61.5164 12.544 61.4098 13.0027 61.4098 13.536C61.4098 14.0693 61.5164 14.5387 61.7298 14.944C61.9538 15.3387 62.2418 15.6427 62.5938 15.856C62.9564 16.0693 63.3404 16.176 63.7458 16.176C64.1618 16.176 64.5511 16.0747 64.9138 15.872C65.2764 15.6587 65.5644 15.36 65.7778 14.976C65.9911 14.5813 66.0978 14.112 66.0978 13.568ZM74.4775 18.144C73.6242 18.144 72.8562 17.9573 72.1735 17.584C71.4908 17.2 70.9522 16.6613 70.5575 15.968C70.1735 15.2747 69.9815 14.4747 69.9815 13.568C69.9815 12.6613 70.1788 11.8613 70.5735 11.168C70.9788 10.4747 71.5282 9.94133 72.2215 9.568C72.9148 9.184 73.6882 8.992 74.5415 8.992C75.3948 8.992 76.1682 9.184 76.8615 9.568C77.5548 9.94133 78.0988 10.4747 78.4935 11.168C78.8988 11.8613 79.1015 12.6613 79.1015 13.568C79.1015 14.4747 78.8935 15.2747 78.4775 15.968C78.0722 16.6613 77.5175 17.2 76.8135 17.584C76.1202 17.9573 75.3415 18.144 74.4775 18.144ZM74.4775 16.192C74.8828 16.192 75.2615 16.096 75.6135 15.904C75.9762 15.7013 76.2642 15.4027 76.4775 15.008C76.6908 14.6133 76.7975 14.1333 76.7975 13.568C76.7975 12.7253 76.5735 12.08 76.1255 11.632C75.6882 11.1733 75.1495 10.944 74.5095 10.944C73.8695 10.944 73.3308 11.1733 72.8935 11.632C72.4668 12.08 72.2535 12.7253 72.2535 13.568C72.2535 14.4107 72.4615 15.0613 72.8775 15.52C73.3042 15.968 73.8375 16.192 74.4775 16.192ZM81.7366 18.112C81.3313 18.112 80.9953 17.9893 80.7286 17.744C80.4726 17.488 80.3446 17.1733 80.3446 16.8C80.3446 16.4267 80.4726 16.1173 80.7286 15.872C80.9953 15.616 81.3313 15.488 81.7366 15.488C82.1313 15.488 82.4566 15.616 82.7126 15.872C82.9686 16.1173 83.0966 16.4267 83.0966 16.8C83.0966 17.1733 82.9686 17.488 82.7126 17.744C82.4566 17.9893 82.1313 18.112 81.7366 18.112ZM92.5009 6.832V8.64H89.5249V18H87.2849V8.64H84.3089V6.832H92.5009ZM98.0713 18.144C97.2179 18.144 96.4499 17.9573 95.7673 17.584C95.0846 17.2 94.5459 16.6613 94.1513 15.968C93.7673 15.2747 93.5753 14.4747 93.5753 13.568C93.5753 12.6613 93.7726 11.8613 94.1673 11.168C94.5726 10.4747 95.1219 9.94133 95.8153 9.568C96.5086 9.184 97.2819 8.992 98.1353 8.992C98.9886 8.992 99.7619 9.184 100.455 9.568C101.149 9.94133 101.693 10.4747 102.087 11.168C102.493 11.8613 102.695 12.6613 102.695 13.568C102.695 14.4747 102.487 15.2747 102.071 15.968C101.666 16.6613 101.111 17.2 100.407 17.584C99.7139 17.9573 98.9353 18.144 98.0713 18.144ZM98.0713 16.192C98.4766 16.192 98.8553 16.096 99.2073 15.904C99.5699 15.7013 99.8579 15.4027 100.071 15.008C100.285 14.6133 100.391 14.1333 100.391 13.568C100.391 12.7253 100.167 12.08 99.7193 11.632C99.2819 11.1733 98.7433 10.944 98.1033 10.944C97.4633 10.944 96.9246 11.1733 96.4873 11.632C96.0606 12.08 95.8473 12.7253 95.8473 13.568C95.8473 14.4107 96.0553 15.0613 96.4713 15.52C96.8979 15.968 97.4313 16.192 98.0713 16.192ZM116.626 9.136L114.034 18H111.618L110.002 11.808L108.386 18H105.954L103.346 9.136H105.618L107.186 15.888L108.882 9.136H111.25L112.914 15.872L114.482 9.136H116.626ZM122.75 9.008C123.806 9.008 124.66 9.344 125.31 10.016C125.961 10.6773 126.286 11.6053 126.286 12.8V18H124.046V13.104C124.046 12.4 123.87 11.8613 123.518 11.488C123.166 11.104 122.686 10.912 122.078 10.912C121.46 10.912 120.969 11.104 120.606 11.488C120.254 11.8613 120.078 12.4 120.078 13.104V18H117.838V9.136H120.078V10.24C120.377 9.856 120.756 9.55733 121.214 9.344C121.684 9.12 122.196 9.008 122.75 9.008Z" fill="#1E1E1E"/>
<path d="M21 16V7.99999C20.9996 7.64927 20.9071 7.3048 20.7315 7.00116C20.556 6.69751 20.3037 6.44536 20 6.26999L13 2.26999C12.696 2.09446 12.3511 2.00204 12 2.00204C11.6489 2.00204 11.304 2.09446 11 2.26999L4 6.26999C3.69626 6.44536 3.44398 6.69751 3.26846 7.00116C3.09294 7.3048 3.00036 7.64927 3 7.99999V16C3.00036 16.3507 3.09294 16.6952 3.26846 16.9988C3.44398 17.3025 3.69626 17.5546 4 17.73L11 21.73C11.304 21.9055 11.6489 21.9979 12 21.9979C12.3511 21.9979 12.696 21.9055 13 21.73L20 17.73C20.3037 17.5546 20.556 17.3025 20.7315 16.9988C20.9071 16.6952 20.9996 16.3507 21 16Z" stroke="black" stroke-width="2" stroke-linecap="round" stroke-linejoin="round"/>
<path d="M3.27002 6.95999L12 12.01L20.73 6.95999" stroke="black" stroke-width="2" stroke-linecap="round" stroke-linejoin="round"/>
<path d="M12 22.08V12" stroke="black" stroke-width="2" stroke-linecap="round" stroke-linejoin="round"/>
</svg>
