<svg width="341" height="426" viewBox="0 0 341 426" fill="none" xmlns="http://www.w3.org/2000/svg">
<path d="M31.4834 146.389C19.6528 156.484 0.9968 172.425 0.0867524 178.269C-1.27832 186.771 13.7375 231.935 26.0231 250.531C35.5786 264.878 86.9963 361.581 109.747 404.62C106.562 359.456 94.7317 320.137 76.5307 278.692C60.6049 242.561 39.6738 203.774 33.3035 163.392C32.3934 157.547 31.9384 151.702 31.4834 146.389ZM179.821 28.9629V17.2735H183.461V28.9629H187.101V37.9957H203.482L261.725 134.699L339.989 256.376V267.003L218.953 90.5983H208.488V106.538H218.953L340.444 279.755V290.382L218.953 129.386H32.3934V106.538H42.404V90.5983H32.3934V67.7507H59.6949V37.9957H140.689V31.0883H162.985V0.270599H166.17V38.527H171.631V29.4943H179.821V28.9629ZM333.164 288.788V297.289L339.989 305.791V297.821L333.164 288.788ZM233.059 164.454V175.081C236.244 178.801 238.974 182.52 242.159 186.239V175.613C238.974 171.893 236.244 168.174 233.059 164.454ZM247.165 182.52V193.147C249.895 196.866 253.08 200.586 255.81 203.774V193.147C253.08 189.427 250.35 185.708 247.165 182.52ZM261.725 200.054V210.15C264.456 213.869 267.186 217.057 269.916 220.776V210.681C267.186 206.962 264.456 203.774 261.725 200.054ZM275.831 218.12V227.684C278.561 230.872 281.291 234.591 284.022 237.779V228.215C281.291 224.496 278.561 221.308 275.831 218.12ZM290.392 235.654V245.218C293.122 248.406 295.397 251.594 298.127 254.782V245.218C295.397 242.03 292.667 238.842 290.392 235.654ZM304.498 253.188V262.221C306.773 265.409 309.503 268.597 311.778 271.785V262.752C309.503 259.564 306.773 256.376 304.498 253.188ZM318.603 271.254V279.755C320.878 282.943 323.609 285.6 325.884 288.788V280.286C323.609 277.098 321.333 274.442 318.603 271.254ZM218.953 146.92H143.874C151.61 148.514 158.89 150.64 166.17 152.765C171.631 154.359 178.001 155.953 184.371 158.61H218.953V158.078L228.054 169.768V158.61L218.953 146.92ZM163.44 60.8433H183.461V67.7507H193.017V49.6852H69.7054V67.7507H77.8958V60.8433H97.9168V67.7507H107.017V60.8433H127.038V67.7507H136.594V60.8433H156.615V67.7507H162.985V60.8433H163.44ZM203.027 106.538V90.5983H188.012V106.538H203.027ZM67.8853 90.5983V106.538H82.9011V90.5983H67.8853ZM62.425 106.538V90.5983H47.4092V106.538H62.425ZM87.9063 90.5983V106.538H102.922V90.5983H87.9063ZM107.927 90.5983V106.538H122.943V90.5983H107.927ZM127.948 90.5983V106.538H142.964V90.5983H127.948ZM147.969 90.5983V106.538H162.985V90.5983H147.969ZM167.991 90.5983V106.538H183.006V90.5983H167.991ZM41.4939 138.419C41.4939 138.419 169.811 160.204 192.562 174.55C215.313 188.896 340.444 329.17 340.444 329.17L333.164 406.628L121.123 425.342C118.848 285.069 41.4939 222.902 41.4939 138.419ZM231.239 240.436C228.964 240.436 226.689 243.624 226.689 247.875C226.689 252.125 228.509 255.845 231.239 255.845C233.514 255.845 235.789 252.657 235.789 248.406C235.789 243.624 233.969 240.436 231.239 240.436ZM216.678 227.153C213.948 227.153 212.128 230.872 212.128 235.123C212.128 239.905 214.403 243.624 216.678 243.624C219.408 243.624 221.228 239.905 221.228 235.654C221.683 230.872 219.408 227.153 216.678 227.153ZM245.8 253.719C243.524 253.719 241.704 256.908 241.704 261.158C241.704 265.409 243.524 268.597 245.8 268.597C248.075 268.597 249.895 265.409 249.895 261.69C249.895 256.907 248.075 253.719 245.8 253.719ZM260.36 266.472C258.085 266.472 256.72 269.66 256.72 273.379C256.72 277.098 258.54 280.286 260.36 280.286C262.635 280.286 264.001 277.098 264.001 273.379C264.001 269.66 262.635 267.003 260.36 266.472ZM274.921 279.755C273.101 279.755 271.281 282.412 271.281 286.131C271.281 289.851 272.646 292.507 274.921 292.507C276.741 292.507 278.561 289.851 278.561 286.131C278.561 282.943 276.741 279.755 274.921 279.755ZM289.482 293.039C287.662 293.039 286.297 295.695 286.297 298.883C286.297 302.071 287.662 304.728 289.482 304.728C291.302 304.728 292.667 302.071 292.667 298.883C292.667 295.695 291.302 293.039 289.482 293.039ZM304.043 306.322C302.222 306.322 300.857 308.447 300.857 311.635C300.857 314.823 302.222 316.949 304.043 316.949C305.863 316.949 307.228 314.823 307.228 311.635C306.773 308.979 305.408 306.322 304.043 306.322ZM318.603 319.606C317.238 319.606 315.873 321.731 315.873 324.388C315.873 327.044 317.238 329.17 318.603 329.17C319.968 329.17 321.333 327.044 321.333 324.388C321.333 321.731 319.968 319.606 318.603 319.606ZM333.164 332.889C331.799 332.889 330.889 335.014 330.889 337.14C330.889 339.265 331.799 341.39 333.164 341.39C334.529 341.39 335.439 339.265 335.439 337.14C335.439 334.483 334.529 332.889 333.164 332.889ZM132.044 265.94C132.044 266.472 131.589 266.472 131.589 266.472C131.134 267.003 130.224 267.534 129.313 267.534C128.403 267.534 127.493 267.003 127.038 266.472L126.583 265.94C126.128 265.94 126.128 266.472 125.673 267.003C124.763 268.066 124.308 269.66 124.308 271.254C124.308 272.848 124.763 274.442 125.673 275.504C126.583 276.567 127.948 277.098 129.313 277.098C130.679 277.098 132.044 276.567 132.954 275.504C133.864 274.442 134.319 272.848 134.319 271.254C134.319 269.66 133.864 268.066 132.954 267.003C132.954 266.472 132.499 265.94 132.044 265.94ZM127.948 260.627H130.679V257.439C130.679 257.97 130.224 259.033 129.313 259.033C128.858 259.033 127.948 258.502 127.948 257.439V256.376V260.627ZM130.224 264.878H128.403C128.858 264.878 128.858 265.409 129.313 265.409C129.313 265.409 129.769 265.409 130.224 264.878ZM129.313 246.812C129.769 246.812 130.679 247.343 130.679 248.406V242.03C130.679 242.561 130.224 243.624 129.313 243.624C128.858 243.624 127.948 243.093 127.948 242.03V240.967V249.469V248.937C127.948 247.343 128.403 246.812 129.313 246.812ZM129.313 230.872C129.769 230.872 130.679 231.403 130.679 232.466V226.09C130.679 226.621 130.224 227.684 129.313 227.684C128.858 227.684 127.948 227.153 127.948 226.09V225.027V233.529V232.466C127.948 231.403 128.403 230.872 129.313 230.872ZM129.313 192.615C133.409 192.615 136.594 196.335 136.594 201.117C136.594 204.836 134.774 207.493 132.499 209.087V215.994C132.499 217.057 132.044 218.12 131.589 218.651C131.134 219.182 130.679 219.182 130.679 219.714V221.839C131.134 221.839 131.589 222.37 131.589 222.902C132.044 223.433 132.499 224.496 132.499 225.558V231.935C132.499 232.997 132.044 234.06 131.589 234.591C131.134 235.123 130.679 235.123 130.679 235.654V237.779C131.134 237.779 131.589 238.311 131.589 238.842C132.044 239.373 132.499 240.436 132.499 241.499V247.875C132.499 248.937 132.044 250 131.589 250.531C131.134 251.063 130.679 251.063 130.679 251.594V253.719C131.134 253.719 131.589 254.251 131.589 254.782C132.044 255.313 132.499 256.376 132.499 257.439V261.158C133.864 261.69 134.774 262.752 135.684 263.815C137.504 265.94 138.414 268.597 138.414 271.785C138.414 274.973 137.504 277.63 135.684 279.755C134.319 281.349 132.954 281.88 131.589 282.412V314.823C140.234 314.823 142.054 310.041 143.419 305.259C143.874 303.665 144.784 301.54 145.694 299.946H144.784V295.164H149.79L155.705 294.633L151.155 298.883C149.335 301.009 147.969 303.665 147.059 306.853C144.784 313.761 142.509 320.668 129.313 319.074C116.118 320.137 113.843 313.761 111.568 306.853C110.658 304.197 109.747 301.009 107.472 298.883L103.377 294.633L109.292 295.164H114.298V299.946H113.388C114.298 301.54 114.753 303.665 115.663 305.259C117.483 310.041 118.848 314.823 127.493 314.823V281.88C125.673 281.349 123.853 280.286 122.943 278.692C120.668 277.098 119.758 274.442 119.758 271.254C119.758 268.066 120.668 265.409 122.488 263.284C123.398 262.221 124.308 261.158 125.673 260.627V256.908C125.673 255.845 126.128 254.782 126.583 254.251C127.038 253.719 127.493 253.719 127.948 253.188V251.063C127.493 251.063 127.038 250.531 126.583 250C126.128 249.469 125.673 248.406 125.673 247.343V240.967C125.673 239.905 126.128 238.842 126.583 238.311C127.038 237.779 127.493 237.779 127.948 237.248V235.123C127.493 235.123 127.038 234.591 126.583 234.06C126.128 233.529 125.673 232.466 125.673 231.403V225.027C125.673 223.964 126.128 222.902 126.583 222.37C127.038 221.839 127.493 221.839 127.948 221.308V219.714C127.493 219.714 127.038 219.182 126.583 218.651C126.128 218.12 125.673 217.057 125.673 215.994V209.618V208.556C123.398 206.962 122.033 204.305 122.033 201.117C122.033 196.866 125.218 192.615 129.313 192.615ZM130.679 209.618H127.948V217.588V216.526C127.948 215.463 128.403 214.932 129.313 214.932C129.769 214.932 130.679 215.463 130.679 216.526V209.618Z" fill="#EFEFF1"/>
</svg>
